<svg id="Ebene_1" data-name="Ebene 1" xmlns="http://www.w3.org/2000/svg" width="1920" height="1080" viewBox="0 0 1920 1080"><defs><style>.cls-1{font-size:251.4px;font-family:Montserrat-SemiBold, Montserrat;font-weight:600;}.cls-1,.cls-3{fill:#1d526d;}.cls-2{letter-spacing:-0.01em;}.cls-4,.cls-6{fill:#fff;}.cls-5{fill:none;stroke-width:14.58px;}.cls-5,.cls-6{stroke:#fff;stroke-miterlimit:10;}.cls-6{stroke-width:0.49px;}</style></defs><text class="cls-1" transform="translate(753.42 600.24)">go<tspan class="cls-2" x="336.62" y="0">r</tspan><tspan x="439.69" y="0">eeo</tspan></text><circle class="cls-3" cx="476.51" cy="526.79" r="156.11"/><circle class="cls-4" cx="502.82" cy="532.14" r="27.12"/><circle class="cls-4" cx="502.82" cy="604.45" r="27.12"/><circle class="cls-4" cx="412.43" cy="604.45" r="27.12"/><circle class="cls-4" cx="358.2" cy="532.14" r="27.12"/><circle class="cls-4" cx="430.51" cy="477.91" r="27.12"/><circle class="cls-4" cx="484.74" cy="423.68" r="27.12"/><circle class="cls-4" cx="593.2" cy="423.68" r="27.12"/><circle class="cls-4" cx="611.28" cy="495.99" r="27.12"/><line class="cls-5" x1="594.46" y1="424.34" x2="483.84" y2="424.34"/><line class="cls-5" x1="431.17" y1="477.01" x2="483.84" y2="424.34"/><line class="cls-5" x1="357.42" y1="532.32" x2="412.73" y2="603.44"/><line class="cls-5" x1="502.28" y1="603.44" x2="412.73" y2="603.44"/><line class="cls-5" x1="583.93" y1="674.55" x2="502.28" y2="603.44"/><line class="cls-5" x1="502.28" y1="532.32" x2="431.17" y2="477.01"/><line class="cls-5" x1="611.58" y1="496.77" x2="503.59" y2="531.01"/><path class="cls-5" d="M432.48,475.7l-126.42,2.63Z"/><line class="cls-5" x1="358.74" y1="531.01" x2="295.52" y2="531.01"/><path class="cls-3" d="M285.4,526.71c0,105.38,85.43,190.8,190.8,190.8S667,632.09,667,526.71s-85.42-190.8-190.8-190.8S285.4,421.34,285.4,526.71Zm34.69,0A156.11,156.11,0,1,1,476.2,682.82,156.11,156.11,0,0,1,320.09,526.71Z"/><path class="cls-6" d="M302.75,526.71A173.45,173.45,0,1,0,476.2,353.26,173.46,173.46,0,0,0,302.75,526.71Zm17.34,0A156.11,156.11,0,1,1,476.2,682.82,156.11,156.11,0,0,1,320.09,526.71Z"/></svg>