<?xml version="1.0" encoding="utf-8"?>
<!-- Generator: Adobe Illustrator 26.3.1, SVG Export Plug-In . SVG Version: 6.00 Build 0)  -->
<svg version="1.1" id="Ebene_1" xmlns="http://www.w3.org/2000/svg" xmlns:xlink="http://www.w3.org/1999/xlink" x="0px" y="0px"
	 viewBox="0 0 1381 393" style="enable-background:new 0 0 1381 393;" xml:space="preserve">
<style type="text/css">
	.st0{enable-background:new    ;}
	.st1{fill:#1D526D;}
	.st2{fill:#FFFFFF;}
	.st3{fill:none;stroke:#FFFFFF;stroke-width:14.58;stroke-miterlimit:10;}
	.st4{fill:#FFFFFF;stroke:#FFFFFF;stroke-width:0.49;stroke-miterlimit:10;}
</style>
<g class="st0">
	<path class="st1" d="M626.3,134v113.9c0,48.8-25.4,70.9-72.4,70.9c-25.1,0-50-6.5-65.4-19.1l14.1-23.6
		c11.8,9.8,30.9,16.1,49.5,16.1c29.7,0,42.7-13.6,42.7-40.7v-7c-11.1,12.1-26.9,17.9-45,17.9c-38.5,0-67.9-26.1-67.9-65.1
		s29.4-64.6,67.9-64.6c18.9,0,35.4,6,46.5,19.4V134H626.3z M595.4,197.1c0-22.6-17.1-38-40.7-38c-23.9,0-41,15.3-41,38
		c0,22.9,17.1,38.5,41,38.5C578.3,235.6,595.4,220,595.4,197.1z"/>
	<path class="st1" d="M656.4,201.1c0-40.2,30.2-68.6,71.4-68.6c41.7,0,71.7,28.4,71.7,68.6S769.6,270,727.8,270
		C686.6,270,656.4,241.3,656.4,201.1z M767.8,201.1c0-25.6-17.1-42-40-42c-22.6,0-39.7,16.3-39.7,42c0,25.6,17.1,42,39.7,42
		C750.7,243.1,767.8,226.8,767.8,201.1z"/>
</g>
<g class="st0">
	<path class="st1" d="M907.3,132.5v29.9c-2.8-0.5-5-0.8-7.3-0.8c-23.9,0-39,14.1-39,41.5v65.1h-31.4V134h29.9v19.6
		C868.6,139.5,885,132.5,907.3,132.5z"/>
</g>
<g class="st0">
	<path class="st1" d="M1058.4,211.2H953.1c3.8,19.6,20.1,32.2,43.5,32.2c15.1,0,26.9-4.8,36.5-14.6l16.8,19.4
		c-12.1,14.3-30.9,21.9-54.1,21.9c-45,0-74.2-28.9-74.2-68.9s29.4-68.6,69.4-68.6c39.2,0,67.9,27.4,67.9,69.4
		C1058.9,204.4,1058.7,208.2,1058.4,211.2z M952.8,190.3h76.2c-2.5-19.4-17.3-32.7-38-32.7C970.7,157.6,955.9,170.7,952.8,190.3z"/>
	<path class="st1" d="M1214.8,211.2h-105.3c3.8,19.6,20.1,32.2,43.5,32.2c15.1,0,26.9-4.8,36.5-14.6l16.8,19.4
		c-12.1,14.3-30.9,21.9-54.1,21.9c-45,0-74.2-28.9-74.2-68.9s29.4-68.6,69.4-68.6c39.2,0,67.9,27.4,67.9,69.4
		C1215.3,204.4,1215,208.2,1214.8,211.2z M1109.2,190.3h76.2c-2.5-19.4-17.3-32.7-38-32.7C1127.1,157.6,1112.2,170.7,1109.2,190.3z"
		/>
	<path class="st1" d="M1234.4,201.1c0-40.2,30.2-68.6,71.4-68.6c41.7,0,71.7,28.4,71.7,68.6s-29.9,68.9-71.7,68.9
		C1264.6,270,1234.4,241.3,1234.4,201.1z M1345.8,201.1c0-25.6-17.1-42-40-42c-22.6,0-39.7,16.3-39.7,42c0,25.6,17.1,42,39.7,42
		C1328.7,243.1,1345.8,226.8,1345.8,201.1z"/>
</g>
<circle class="st1" cx="195.5" cy="194.8" r="156.1"/>
<circle class="st2" cx="221.8" cy="200.1" r="27.1"/>
<ellipse transform="matrix(0.9239 -0.3827 0.3827 0.9239 -87.3977 105.622)" class="st2" cx="221.8" cy="272.5" rx="27.1" ry="27.1"/>
<circle class="st2" cx="131.4" cy="272.5" r="27.1"/>
<circle class="st2" cx="77.2" cy="200.1" r="27.1"/>
<circle class="st2" cx="149.5" cy="145.9" r="27.1"/>
<circle class="st2" cx="203.7" cy="91.7" r="27.1"/>
<circle class="st2" cx="312.2" cy="91.7" r="27.1"/>
<circle class="st2" cx="330.3" cy="164" r="27.1"/>
<line class="st3" x1="313.5" y1="92.3" x2="202.8" y2="92.3"/>
<line class="st3" x1="150.2" y1="145" x2="202.8" y2="92.3"/>
<line class="st3" x1="76.4" y1="200.3" x2="131.7" y2="271.4"/>
<line class="st3" x1="221.3" y1="271.4" x2="131.7" y2="271.4"/>
<line class="st3" x1="302.9" y1="342.5" x2="221.3" y2="271.4"/>
<line class="st3" x1="221.3" y1="200.3" x2="150.2" y2="145"/>
<line class="st3" x1="330.6" y1="164.8" x2="222.6" y2="199"/>
<path class="st3" d="M151.5,143.7l-126.4,2.6L151.5,143.7z"/>
<line class="st3" x1="77.7" y1="199" x2="14.5" y2="199"/>
<path class="st1" d="M4.4,194.7c0,105.4,85.4,190.8,190.8,190.8S386,300.1,386,194.7S300.6,3.9,195.2,3.9S4.4,89.3,4.4,194.7z
	 M39.1,194.7c0-86.2,69.9-156.1,156.1-156.1s156.1,69.9,156.1,156.1s-69.9,156.1-156.1,156.1S39.1,280.9,39.1,194.7L39.1,194.7z"/>
<path class="st4" d="M21.8,194.7c0,95.8,77.7,173.5,173.5,173.5s173.5-77.7,173.5-173.5S291,21.3,195.2,21.3S21.8,98.9,21.8,194.7z
	 M39.1,194.7c0-86.2,69.9-156.1,156.1-156.1s156.1,69.9,156.1,156.1s-69.9,156.1-156.1,156.1S39.1,280.9,39.1,194.7L39.1,194.7z"/>
</svg>
