<?xml version="1.0" encoding="utf-8"?>
<!-- Generator: Adobe Illustrator 26.3.1, SVG Export Plug-In . SVG Version: 6.00 Build 0)  -->
<svg version="1.1" id="Ebene_1" xmlns="http://www.w3.org/2000/svg" xmlns:xlink="http://www.w3.org/1999/xlink" x="0px" y="0px"
	 viewBox="0 0 1920 1080" style="enable-background:new 0 0 1920 1080;" xml:space="preserve">
<style type="text/css">
	.st0{enable-background:new    ;}
	.st1{fill:#1D526D;}
	.st2{fill:#FFFFFF;}
	.st3{fill:none;stroke:#FFFFFF;stroke-width:14.58;stroke-miterlimit:10;}
	.st4{fill:#FFFFFF;stroke:#FFFFFF;stroke-width:0.49;stroke-miterlimit:10;}
</style>
<g class="st0">
	<path class="st1" d="M907.3,466v113.9c0,48.8-25.4,70.9-72.4,70.9c-25.1,0-50-6.5-65.4-19.1l14.1-23.6
		c11.8,9.8,30.9,16.1,49.5,16.1c29.7,0,42.7-13.6,42.7-40.7v-7c-11.1,12.1-26.9,17.9-45,17.9c-38.5,0-67.9-26.1-67.9-65.1
		s29.4-64.6,67.9-64.6c18.9,0,35.4,6,46.5,19.4V466H907.3z M876.4,529.1c0-22.6-17.1-38-40.7-38c-23.9,0-41,15.3-41,38
		c0,22.9,17.1,38.5,41,38.5C859.3,567.6,876.4,552,876.4,529.1z"/>
	<path class="st1" d="M937.4,533.1c0-40.2,30.2-68.6,71.4-68.6c41.7,0,71.7,28.4,71.7,68.6s-29.9,68.9-71.7,68.9
		C967.6,602,937.4,573.3,937.4,533.1z M1048.8,533.1c0-25.6-17.1-42-40-42c-22.6,0-39.7,16.3-39.7,42c0,25.6,17.1,42,39.7,42
		C1031.7,575.1,1048.8,558.8,1048.8,533.1z"/>
</g>
<g class="st0">
	<path class="st1" d="M1188.3,464.5v29.9c-2.8-0.5-5-0.8-7.3-0.8c-23.9,0-39,14.1-39,41.5v65.1h-31.4V466h29.9v19.6
		C1149.6,471.5,1166,464.5,1188.3,464.5z"/>
</g>
<g>
</g>
<g class="st0">
	<path class="st1" d="M1339.4,543.2h-105.3c3.8,19.6,20.1,32.2,43.5,32.2c15.1,0,26.9-4.8,36.5-14.6l16.8,19.4
		c-12.1,14.3-30.9,21.9-54.1,21.9c-45,0-74.2-28.9-74.2-68.9c0-40,29.4-68.6,69.4-68.6c39.2,0,67.9,27.4,67.9,69.4
		C1339.9,536.4,1339.7,540.2,1339.4,543.2z M1233.8,522.3h76.2c-2.5-19.4-17.3-32.7-38-32.7C1251.7,489.6,1236.9,502.7,1233.8,522.3
		z"/>
	<path class="st1" d="M1495.8,543.2h-105.3c3.8,19.6,20.1,32.2,43.5,32.2c15.1,0,26.9-4.8,36.5-14.6l16.8,19.4
		c-12.1,14.3-30.9,21.9-54.1,21.9c-45,0-74.2-28.9-74.2-68.9c0-40,29.4-68.6,69.4-68.6c39.2,0,67.9,27.4,67.9,69.4
		C1496.3,536.4,1496,540.2,1495.8,543.2z M1390.2,522.3h76.2c-2.5-19.4-17.3-32.7-38-32.7C1408.1,489.6,1393.2,502.7,1390.2,522.3z"
		/>
	<path class="st1" d="M1515.4,533.1c0-40.2,30.2-68.6,71.4-68.6c41.7,0,71.7,28.4,71.7,68.6s-29.9,68.9-71.7,68.9
		C1545.6,602,1515.4,573.3,1515.4,533.1z M1626.8,533.1c0-25.6-17.1-42-40-42c-22.6,0-39.7,16.3-39.7,42c0,25.6,17.1,42,39.7,42
		C1609.7,575.1,1626.8,558.8,1626.8,533.1z"/>
</g>
<circle class="st1" cx="476.5" cy="526.8" r="156.1"/>
<circle class="st2" cx="502.8" cy="532.1" r="27.1"/>
<circle class="st2" cx="502.8" cy="604.5" r="27.1"/>
<circle class="st2" cx="412.4" cy="604.5" r="27.1"/>
<circle class="st2" cx="358.2" cy="532.1" r="27.1"/>
<circle class="st2" cx="430.5" cy="477.9" r="27.1"/>
<circle class="st2" cx="484.7" cy="423.7" r="27.1"/>
<circle class="st2" cx="593.2" cy="423.7" r="27.1"/>
<circle class="st2" cx="611.3" cy="496" r="27.1"/>
<line class="st3" x1="594.5" y1="424.3" x2="483.8" y2="424.3"/>
<line class="st3" x1="431.2" y1="477" x2="483.8" y2="424.3"/>
<line class="st3" x1="357.4" y1="532.3" x2="412.7" y2="603.4"/>
<line class="st3" x1="502.3" y1="603.4" x2="412.7" y2="603.4"/>
<line class="st3" x1="583.9" y1="674.5" x2="502.3" y2="603.4"/>
<line class="st3" x1="502.3" y1="532.3" x2="431.2" y2="477"/>
<line class="st3" x1="611.6" y1="496.8" x2="503.6" y2="531"/>
<path class="st3" d="M432.5,475.7l-126.4,2.6L432.5,475.7z"/>
<line class="st3" x1="358.7" y1="531" x2="295.5" y2="531"/>
<path class="st1" d="M285.4,526.7c0,105.4,85.4,190.8,190.8,190.8S667,632.1,667,526.7s-85.4-190.8-190.8-190.8
	S285.4,421.3,285.4,526.7z M320.1,526.7c0-86.2,69.9-156.1,156.1-156.1s156.1,69.9,156.1,156.1s-69.9,156.1-156.1,156.1
	S320.1,612.9,320.1,526.7L320.1,526.7z"/>
<path class="st4" d="M302.8,526.7c0,95.8,77.7,173.5,173.5,173.5s173.5-77.7,173.5-173.5S572,353.3,476.2,353.3
	C380.4,353.3,302.8,430.9,302.8,526.7z M320.1,526.7c0-86.2,69.9-156.1,156.1-156.1s156.1,69.9,156.1,156.1s-69.9,156.1-156.1,156.1
	S320.1,612.9,320.1,526.7L320.1,526.7z"/>
</svg>
